# xmcd
#
# Track frame offsets:
#	150
#	15877
#	32881
#	47790
#	61200
#	77158
#	90410
#	103251
#	116493
#	131352
#
# Disc length: 1925 seconds
#
# Revision: 0
# Processed by: cddbd v1.5.2PL0 Copyright (c) Steve Scherf et al.
# Submitted via: dBpowerAMP V4.0
#
DISCID=7407830a
DTITLE=Chris Callaghan - Outback Idle
DYEAR=1900
DGENRE=Country
TTITLE0=Big Picture Big Country
TTITLE1=In Alice Springs
TTITLE2=Outback Idle
TTITLE3=Waiting For My Time
TTITLE4=Unconditional Love
TTITLE5=Listen To The Rain
TTITLE6=Patched Up Heart
TTITLE7=Runaway Train
TTITLE8=Rockin' Good Time
TTITLE9=A Better Place
EXTD=
EXTT0=
EXTT1=
EXTT2=
EXTT3=
EXTT4=
EXTT5=
EXTT6=
EXTT7=
EXTT8=
EXTT9=
PLAYORDER=
